<?xml version="1.0" encoding="UTF-8"?><svg id="Layer_2" xmlns="http://www.w3.org/2000/svg" viewBox="0 0 1541.76 1084.88"><defs><style>.cls-1{fill:none;stroke:#000;stroke-linecap:round;stroke-miterlimit:10;stroke-width:36.45px;}</style></defs><g id="Layer_2-2"><path d="m789.03,390.71v457.44L276.29,429.12v380.62c0,12.57-5.99,18.86-17.95,18.86s-17.95-6.28-17.95-18.86v-458.14l512.75,419.03v-379.92c0-13.03,5.98-19.55,17.95-19.55s17.95,6.53,17.95,19.55Z"/><path d="m1301.08,389.72v419.03c0,13.04-5.99,19.55-17.95,19.55s-17.95-6.51-17.95-19.55v-189.96h-476.86v189.96h-35.89v-419.03c0-13.03,5.98-19.55,17.95-19.55s17.95,6.53,17.95,19.55v189.96h476.86v-189.96c0-13.03,5.98-19.55,17.95-19.55s17.95,6.53,17.95,19.55Z"/><path class="cls-1" d="m1283.62,827.26V252.43L798.77,31.64c-9.3-3.92-18.59-7.84-27.89-11.76-11.66,5.24-23.32,10.47-34.98,15.71l7.32-3.33-484.84,220.79v574.83"/><path d="m88.92,1043.34l19.1,20.46h-17.44l-11.73-12.61c-4.01,2.15-8.09,3.76-12.22,4.81-4.14,1.06-8.45,1.58-12.96,1.58-6.1,0-12.08-1.2-17.93-3.59-5.85-2.39-10.97-5.72-15.35-9.99-4.54-4.38-8.01-9.4-10.41-15.04-2.4-5.64-3.59-11.65-3.59-18.03s1.2-12.38,3.59-18.03c2.4-5.64,5.86-10.66,10.41-15.04,4.5-4.38,9.67-7.74,15.51-10.08,5.83-2.33,12.03-3.5,18.58-3.5s12.67,1.17,18.48,3.5c5.81,2.34,10.97,5.69,15.48,10.08,4.54,4.43,8.02,9.46,10.44,15.1,2.42,5.64,3.62,11.63,3.62,17.97s-1.16,12.03-3.47,17.57c-2.31,5.54-5.68,10.49-10.1,14.83Zm-18.24-19.79l8.66,9.2c2.74-3.29,4.75-6.71,6.02-10.26,1.27-3.55,1.9-7.4,1.9-11.54,0-4.55-.81-8.83-2.43-12.85-1.62-4.02-3.98-7.59-7.09-10.72-3.15-3.17-6.74-5.6-10.75-7.31-4.01-1.71-8.19-2.56-12.53-2.56s-8.58.85-12.59,2.56c-4.01,1.71-7.57,4.14-10.69,7.31-3.11,3.13-5.49,6.7-7.12,10.72-1.64,4.02-2.46,8.3-2.46,12.85,0,9.34,3.18,17.2,9.55,23.6,6.37,6.39,14.26,9.59,23.67,9.59,2.54,0,4.96-.27,7.28-.82,2.31-.55,4.62-1.41,6.91-2.59l-16.09-17.17h17.75Z"/><path d="m118.89,966.3h14.43v54.14c0,8.04,1.87,14.08,5.62,18.12,3.75,4.04,9.34,6.06,16.8,6.06s12.99-2.02,16.73-6.06c3.75-4.04,5.62-10.08,5.62-18.12v-54.14h14.62v55.48c0,12.06-3.07,21.08-9.21,27.07-6.14,5.99-15.39,8.98-27.76,8.98s-21.6-2.98-27.7-8.95c-6.1-5.97-9.15-15-9.15-27.1v-55.48Z"/><path d="m212.85,1055.46v-89.16h50.17v12.3h-35.56v22.35h35.56v12.73h-35.56v28.81h35.56v12.97h-50.17Z"/><path d="m279.78,1055.46v-89.16h50.17v12.3h-35.56v22.35h35.56v12.73h-35.56v28.81h35.56v12.97h-50.17Z"/><path d="m346.72,1055.46v-92.69l57.11,54.51c1.56,1.54,3.13,3.19,4.73,4.93,1.6,1.75,3.27,3.71,5.04,5.91v-61.82h13.51v92.63l-58.28-55.48c-1.56-1.5-3.06-3.08-4.51-4.75-1.45-1.67-2.84-3.41-4.15-5.24v62h-13.45Z"/><path d="m442.58,1037.62l11.67-5.36c1.11,3.98,3.13,7.01,6.08,9.1,2.95,2.09,6.71,3.14,11.3,3.14,4.34,0,7.79-1.2,10.35-3.59,2.56-2.39,3.84-5.6,3.84-9.62,0-5.24-4.38-9.91-13.14-14.01-1.23-.61-2.17-1.05-2.83-1.34-9.91-4.79-16.51-9.12-19.8-13-3.3-3.88-4.94-8.62-4.94-14.22,0-7.27,2.49-13.15,7.46-17.66s11.49-6.76,19.56-6.76c6.63,0,12.18,1.27,16.64,3.81,4.46,2.54,7.55,6.18,9.27,10.93l-11.42,5.85c-1.8-2.8-3.78-4.85-5.93-6.15-2.15-1.3-4.62-1.95-7.4-1.95-3.93,0-7.05,1.02-9.36,3.04-2.31,2.03-3.47,4.75-3.47,8.16,0,5.36,5.08,10.35,15.23,14.98.78.37,1.39.65,1.84.85,8.88,4.06,14.98,8.03,18.3,11.91,3.32,3.88,4.97,8.72,4.97,14.53,0,8.45-2.68,15.15-8.04,20.13-5.36,4.97-12.61,7.46-21.74,7.46-7.66,0-13.93-1.75-18.82-5.24-4.89-3.49-8.1-8.49-9.61-14.98Z"/><path d="m626.87,987.98c-4.14-3.49-8.51-6.11-13.11-7.86-4.61-1.75-9.45-2.62-14.52-2.62-9.83,0-17.82,3.13-23.98,9.38-6.16,6.25-9.24,14.35-9.24,24.3s3,17.56,9,23.81c6,6.25,13.56,9.38,22.69,9.38,5.32,0,10.39-.93,15.2-2.8,4.81-1.87,9.43-4.69,13.85-8.46v16.38c-3.93,2.8-8.21,4.89-12.83,6.27-4.63,1.38-9.64,2.07-15.05,2.07-6.88,0-13.23-1.12-19.07-3.35s-10.96-5.52-15.38-9.87c-4.38-4.26-7.75-9.29-10.1-15.07-2.35-5.79-3.53-11.95-3.53-18.48s1.18-12.68,3.53-18.42c2.35-5.74,5.76-10.79,10.23-15.13,4.46-4.38,9.58-7.7,15.35-9.96,5.77-2.25,12.02-3.38,18.73-3.38,5.28,0,10.32.76,15.11,2.28,4.79,1.52,9.44,3.83,13.94,6.91l-.8,14.62Z"/><path d="m737.16,1011.06c0,6.33-1.2,12.32-3.59,17.97-2.39,5.64-5.89,10.68-10.47,15.1-4.63,4.43-9.85,7.82-15.66,10.17-5.81,2.35-11.91,3.53-18.3,3.53s-12.64-1.19-18.52-3.56c-5.88-2.38-11.06-5.75-15.57-10.14-4.59-4.42-8.07-9.44-10.44-15.04-2.37-5.6-3.56-11.61-3.56-18.03s1.19-12.38,3.56-18.03c2.37-5.64,5.85-10.7,10.44-15.17,4.58-4.42,9.78-7.79,15.6-10.11,5.81-2.31,11.97-3.47,18.48-3.47s12.6,1.16,18.39,3.47c5.79,2.31,10.98,5.68,15.57,10.11,4.58,4.51,8.08,9.59,10.47,15.26,2.4,5.66,3.59,11.64,3.59,17.94Zm-15.23,0c0-4.51-.83-8.79-2.49-12.85-1.66-4.06-4.04-7.67-7.15-10.84-3.03-3.13-6.54-5.53-10.53-7.22-3.99-1.68-8.2-2.53-12.62-2.53s-8.63.83-12.62,2.5c-3.99,1.67-7.54,4.08-10.65,7.25-3.11,3.13-5.49,6.72-7.12,10.78-1.64,4.06-2.46,8.36-2.46,12.91s.82,8.77,2.46,12.79c1.64,4.02,4.01,7.61,7.12,10.78,3.11,3.17,6.65,5.58,10.62,7.25,3.97,1.67,8.19,2.5,12.65,2.5s8.55-.83,12.5-2.5c3.95-1.66,7.5-4.08,10.65-7.25,3.11-3.17,5.5-6.77,7.15-10.81,1.66-4.04,2.49-8.29,2.49-12.76Z"/><path d="m753.93,1055.46v-92.69l57.11,54.51c1.56,1.54,3.13,3.19,4.73,4.93,1.6,1.75,3.28,3.71,5.04,5.91v-61.82h13.51v92.63l-58.28-55.48c-1.56-1.5-3.06-3.08-4.51-4.75s-2.83-3.41-4.14-5.24v62h-13.45Z"/><path d="m849.79,1037.62l11.67-5.36c1.11,3.98,3.13,7.01,6.08,9.1,2.95,2.09,6.71,3.14,11.3,3.14,4.34,0,7.79-1.2,10.35-3.59,2.56-2.39,3.84-5.6,3.84-9.62,0-5.24-4.38-9.91-13.14-14.01-1.23-.61-2.17-1.05-2.83-1.34-9.91-4.79-16.51-9.12-19.8-13-3.3-3.88-4.94-8.62-4.94-14.22,0-7.27,2.49-13.15,7.46-17.66,4.97-4.51,11.49-6.76,19.56-6.76,6.63,0,12.18,1.27,16.64,3.81,4.46,2.54,7.55,6.18,9.27,10.93l-11.42,5.85c-1.8-2.8-3.78-4.85-5.93-6.15-2.15-1.3-4.62-1.95-7.4-1.95-3.93,0-7.05,1.02-9.37,3.04-2.31,2.03-3.47,4.75-3.47,8.16,0,5.36,5.08,10.35,15.23,14.98.78.37,1.39.65,1.84.85,8.88,4.06,14.98,8.03,18.3,11.91,3.32,3.88,4.97,8.72,4.97,14.53,0,8.45-2.68,15.15-8.04,20.13-5.36,4.97-12.61,7.46-21.74,7.46-7.66,0-13.93-1.75-18.82-5.24-4.89-3.49-8.1-8.49-9.61-14.98Z"/><path d="m953.02,978.6v76.86h-14.62v-76.86h-23.89v-12.3h62.27v12.3h-23.77Z"/><path d="m1001.66,1015.57v39.89h-13.7v-89.16h20.39c5.98,0,10.61.39,13.91,1.16,3.29.77,6.11,2.05,8.44,3.84,2.78,2.15,4.93,4.93,6.45,8.34s2.27,7.15,2.27,11.21c0,7.15-1.74,12.74-5.22,16.78-3.48,4.04-8.62,6.47-15.41,7.28l30.95,40.56h-16.52l-29.91-39.89h-1.66Zm.92-11.27h2.64c7.74,0,12.88-.89,15.41-2.68,2.54-1.79,3.81-4.95,3.81-9.5,0-4.91-1.36-8.37-4.08-10.38-2.72-2.01-7.77-3.01-15.14-3.01h-2.64v25.58Z"/><path d="m1058.03,966.3h14.43v54.14c0,8.04,1.87,14.08,5.62,18.12,3.75,4.04,9.34,6.06,16.8,6.06s12.99-2.02,16.73-6.06c3.75-4.04,5.62-10.08,5.62-18.12v-54.14h14.62v55.48c0,12.06-3.07,21.08-9.21,27.07-6.14,5.99-15.39,8.98-27.76,8.98s-21.6-2.98-27.7-8.95c-6.1-5.97-9.15-15-9.15-27.1v-55.48Z"/><path d="m1224.14,987.98c-4.14-3.49-8.5-6.11-13.11-7.86-4.61-1.75-9.45-2.62-14.52-2.62-9.83,0-17.82,3.13-23.98,9.38-6.16,6.25-9.24,14.35-9.24,24.3s3,17.56,9,23.81c6,6.25,13.56,9.38,22.69,9.38,5.32,0,10.39-.93,15.2-2.8,4.81-1.87,9.43-4.69,13.85-8.46v16.38c-3.93,2.8-8.21,4.89-12.83,6.27s-9.64,2.07-15.04,2.07c-6.88,0-13.23-1.12-19.07-3.35s-10.96-5.52-15.38-9.87c-4.38-4.26-7.75-9.29-10.1-15.07-2.36-5.79-3.53-11.95-3.53-18.48s1.18-12.68,3.53-18.42c2.35-5.74,5.76-10.79,10.22-15.13,4.46-4.38,9.58-7.7,15.35-9.96,5.77-2.25,12.01-3.38,18.73-3.38,5.28,0,10.32.76,15.11,2.28,4.79,1.52,9.44,3.83,13.94,6.91l-.8,14.62Z"/><path d="m1271.31,978.6v76.86h-14.62v-76.86h-23.89v-12.3h62.27v12.3h-23.77Z"/><path d="m1306.5,1055.46v-89.16h14.62v89.16h-14.62Z"/><path d="m1434.29,1011.06c0,6.33-1.2,12.32-3.59,17.97-2.39,5.64-5.89,10.68-10.47,15.1-4.63,4.43-9.85,7.82-15.66,10.17s-11.91,3.53-18.3,3.53-12.64-1.19-18.52-3.56-11.06-5.75-15.57-10.14c-4.59-4.42-8.07-9.44-10.44-15.04-2.37-5.6-3.56-11.61-3.56-18.03s1.19-12.38,3.56-18.03,5.85-10.7,10.44-15.17c4.58-4.42,9.78-7.79,15.6-10.11,5.81-2.31,11.97-3.47,18.48-3.47s12.6,1.16,18.39,3.47c5.79,2.31,10.98,5.68,15.57,10.11,4.58,4.51,8.08,9.59,10.47,15.26,2.39,5.66,3.59,11.64,3.59,17.94Zm-15.23,0c0-4.51-.83-8.79-2.49-12.85-1.66-4.06-4.04-7.67-7.15-10.84-3.03-3.13-6.54-5.53-10.53-7.22-3.99-1.68-8.2-2.53-12.62-2.53s-8.63.83-12.62,2.5c-3.99,1.67-7.54,4.08-10.66,7.25-3.11,3.13-5.49,6.72-7.12,10.78-1.64,4.06-2.46,8.36-2.46,12.91s.82,8.77,2.46,12.79c1.64,4.02,4.01,7.61,7.12,10.78,3.11,3.17,6.65,5.58,10.62,7.25,3.97,1.67,8.19,2.5,12.65,2.5s8.54-.83,12.5-2.5c3.95-1.66,7.5-4.08,10.66-7.25,3.11-3.17,5.5-6.77,7.15-10.81,1.66-4.04,2.49-8.29,2.49-12.76Z"/><path d="m1451.05,1055.46v-92.69l57.11,54.51c1.56,1.54,3.13,3.19,4.73,4.93,1.6,1.75,3.28,3.71,5.04,5.91v-61.82h13.51v92.63l-58.28-55.48c-1.56-1.5-3.06-3.08-4.51-4.75s-2.83-3.41-4.14-5.24v62h-13.45Z"/></g></svg>