<svg width="49" height="11" viewBox="0 0 49 11" fill="none" xmlns="http://www.w3.org/2000/svg">
<g id="Versall LogoType Black" clip-path="url(#clip0_346_883)">
<g id="Black">
<path id="Vector" d="M4.99386 0.644195L6.56093 0.63428C6.67912 0.633596 6.75682 0.761813 6.70513 0.87225L5.29246 3.88209L3.90546 6.82868C3.84686 6.95347 3.67534 6.95211 3.61838 6.82663L2.88159 5.20392" fill="#93A7FF"/>
<path id="Vector_2" d="M8.63641 0.623047L10.113 0.628176C10.2305 0.628517 10.3072 0.756392 10.2555 0.866145L7.94143 5.7965L5.96514 10.0075C5.78374 10.3942 5.25238 10.3925 5.07295 10.0047L4.67822 9.15064" fill="#1A1D1F"/>
<path id="Vector_3" d="M1.84005 2.81293C2.41442 2.81293 2.88005 2.32752 2.88005 1.72873C2.88005 1.12994 2.41442 0.644531 1.84005 0.644531C1.26567 0.644531 0.800049 1.12994 0.800049 1.72873C0.800049 2.32752 1.26567 2.81293 1.84005 2.81293Z" fill="#1A1D1F"/>
<path id="Vector_4" d="M11.3511 9.94662V0.931117C11.3511 0.810423 11.4156 0.743408 11.5318 0.743408H15.8594C15.9756 0.743408 16.0401 0.810423 16.0401 0.931117V1.45424C16.0401 1.57494 15.9756 1.64195 15.8594 1.64195H12.32V4.83505H15.6786C15.7949 4.83505 15.8594 4.90207 15.8594 5.02276V5.54589C15.8594 5.66658 15.7949 5.7336 15.6786 5.7336H12.32V9.2351H15.8722C15.9884 9.2351 16.053 9.30212 16.053 9.42281V9.94594C16.053 10.0666 15.9884 10.1336 15.8722 10.1336H11.5318C11.4156 10.1336 11.3511 10.0666 11.3511 9.94594V9.94662Z" fill="#1A1D1F"/>
<path id="Vector_5" d="M22.2279 10.0003L20.0449 6.57914H18.598V9.94662C18.598 10.0673 18.5334 10.1343 18.4172 10.1343H17.8101C17.6939 10.1343 17.6294 10.0673 17.6294 9.94662V0.931117C17.6294 0.810423 17.6939 0.743408 17.8101 0.743408H20.2773C22.2279 0.743408 23.2485 1.96437 23.2485 3.66811C23.2485 5.11713 22.4992 6.23073 21.0394 6.51247L23.2356 9.89328C23.3262 10.041 23.2617 10.1347 23.1066 10.1347H22.4607C22.3573 10.1347 22.2799 10.0943 22.2282 10.0006L22.2279 10.0003ZM20.1999 5.68026C21.3756 5.68026 22.3056 5.14346 22.3056 3.66777C22.3056 2.19208 21.3756 1.64195 20.1999 1.64195H18.598V5.68026H20.1999Z" fill="#1A1D1F"/>
<path id="Vector_6" d="M23.8686 8.90041C23.8041 8.79305 23.8041 8.7127 23.8943 8.60534L24.1915 8.25659C24.2949 8.1359 24.4111 8.17624 24.4885 8.26993C24.9665 8.91374 25.5736 9.36985 26.5553 9.36985C27.7178 9.36985 28.4026 8.72604 28.4026 7.74646C28.4026 6.71355 27.6793 6.29744 26.7621 5.828L25.6641 5.27787C24.7081 4.80842 24.0753 4.09725 24.0753 2.98364C24.0753 1.53463 25.1733 0.635742 26.5813 0.635742C27.6148 0.635742 28.4029 1.09185 28.984 1.82969C29.1002 1.96372 29.0745 2.04441 28.984 2.15177L28.6999 2.48719C28.5965 2.60788 28.4931 2.59455 28.3897 2.48719C27.886 1.88337 27.3563 1.56164 26.607 1.56164C25.7158 1.56164 25.0182 2.04476 25.0182 2.97031C25.0182 3.65447 25.3929 4.09725 26.1939 4.49968L27.2661 5.04981C28.3255 5.58661 29.3458 6.23043 29.3458 7.73313C29.3458 9.32951 28.1701 10.2954 26.5557 10.2954C25.2381 10.2954 24.3598 9.66492 23.8686 8.90007V8.90041Z" fill="#1A1D1F"/>
<path id="Vector_7" d="M29.9657 9.90662L33.092 0.904448C33.1308 0.797088 33.221 0.743408 33.3244 0.743408H34.0349C34.1382 0.743408 34.2288 0.797088 34.2673 0.904448L37.4064 9.90662C37.4581 10.0406 37.4064 10.1347 37.2642 10.1347H36.6182C36.5149 10.1347 36.4503 10.0943 36.4115 9.97363L35.7527 8.02816H31.6191L30.9603 9.97363C30.9214 10.0943 30.8569 10.1347 30.7407 10.1347H30.1076C29.9654 10.1347 29.9137 10.0406 29.9654 9.90662H29.9657ZM35.4429 7.12962L33.6862 1.95104L31.9295 7.12962H35.4433H35.4429Z" fill="#1A1D1F"/>
<path id="Vector_8" d="M38.6078 9.94662V0.931117C38.6078 0.810423 38.6723 0.743408 38.7888 0.743408H39.3959C39.5121 0.743408 39.5766 0.810423 39.5766 0.931117V9.23545H42.8576C42.9738 9.23545 43.0515 9.3158 43.0515 9.43683V9.93329C43.0515 10.054 42.9742 10.1347 42.8576 10.1347H38.7885C38.6723 10.1347 38.6074 10.0677 38.6074 9.94696L38.6078 9.94662Z" fill="#1A1D1F"/>
<path id="Vector_9" d="M44.3563 9.94662V0.931117C44.3563 0.810423 44.4208 0.743408 44.537 0.743408H45.1441C45.2603 0.743408 45.3248 0.810423 45.3248 0.931117V9.23545H48.6058C48.722 9.23545 48.7997 9.3158 48.7997 9.43683V9.93329C48.7997 10.054 48.7224 10.1347 48.6058 10.1347H44.5367C44.4205 10.1347 44.356 10.0677 44.356 9.94696L44.3563 9.94662Z" fill="#1A1D1F"/>
</g>
</g>
<defs>
<clipPath id="clip0_346_883">
<rect width="48" height="9.67334" fill="white" transform="translate(0.800049 0.623047)"/>
</clipPath>
</defs>
</svg>
