<svg width="21" height="21" viewBox="0 0 21 21" fill="none" xmlns="http://www.w3.org/2000/svg">
<g id="delete 1" clip-path="url(#clip0_222_12090)">
<path id="Vector" d="M7.96729 0.364136C7.57992 0.364136 7.26416 0.679891 7.26416 1.06726V3.46309C4.99854 3.72026 3.43604 4.24109 3.43604 4.8433V5.98914C3.43604 6.22351 3.68669 6.43835 4.11312 6.64018C5.22966 7.16427 7.64502 7.52559 10.4412 7.52559C13.2407 7.52559 15.6496 7.16427 16.7694 6.64018C17.1925 6.43835 17.4465 6.22351 17.4465 5.98914V4.8433C17.4465 4.22156 15.757 3.68119 13.3579 3.43705V1.06726C13.3579 0.679891 13.0422 0.364136 12.6548 0.364136H7.96729ZM8.67041 1.64018H11.9777C12.0493 1.64018 12.0819 1.97546 12.0819 2.39539V3.33289C11.5513 3.30684 11.0142 3.2808 10.4412 3.2808C9.8488 3.2808 9.26937 3.30359 8.72249 3.33289L8.5402 3.35893V2.39539C8.5402 1.97546 8.60205 1.64018 8.67041 1.64018ZM4.42562 8.33289C4.35075 8.41101 4.31169 8.48263 4.29541 8.56726V8.61934C4.29541 8.63236 4.29216 8.66166 4.29541 8.67143L4.76416 18.4631C4.80648 19.2313 5.69515 20.3902 10.4412 20.3902C15.1873 20.3902 16.076 19.2313 16.1183 18.4631L16.5871 8.67143C16.5871 8.65841 16.5871 8.63236 16.5871 8.61934V8.56726C16.5741 8.48263 16.5317 8.41101 16.4569 8.33289C15.8449 8.95463 13.3807 9.03601 10.4412 9.03601C7.50179 9.03601 5.04085 8.95463 4.42562 8.33289Z" fill="#1a1d1f"/>
</g>
<defs>
<clipPath id="clip0_222_12090">
<rect width="20" height="20" fill="white" transform="translate(0.459229 0.364136)"/>
</clipPath>
</defs>
</svg>
