<svg width="23" height="23" viewBox="0 0 23 23" fill="none" xmlns="http://www.w3.org/2000/svg">
<path fill-rule="evenodd" clip-rule="evenodd" d="M15.1771 15.4685C15.1771 15.9727 14.7646 16.3852 14.2604 16.3852C13.7562 16.3852 13.3437 15.9727 13.3437 15.4685V11.8018C13.3437 11.2977 13.7562 10.8852 14.2604 10.8852C14.7646 10.8852 15.1771 11.2977 15.1771 11.8018V15.4685ZM9.67721 15.4686C9.67721 15.9728 9.26471 16.3853 8.76054 16.3853C8.25637 16.3853 7.84387 15.9728 7.84387 15.4686V11.8019C7.84387 11.2978 8.25637 10.8853 8.76054 10.8853C9.26471 10.8853 9.67721 11.2978 9.67721 11.8019V15.4686ZM17.0107 18.2194C17.0107 18.7245 16.6001 19.1361 16.0941 19.1361H6.92739C6.42139 19.1361 6.01072 18.7245 6.01072 18.2194V8.135H17.0107V18.2194ZM9.67703 4.76871C9.67703 4.62662 9.87319 4.46804 10.1354 4.46804H12.8854C13.1475 4.46804 13.3437 4.62662 13.3437 4.76871V6.30137H9.67703V4.76871ZM19.7605 6.30117H18.8439H15.1772V4.76835C15.1772 3.59122 14.1496 2.63412 12.8855 2.63412H10.1355C8.87146 2.63412 7.84387 3.59122 7.84387 4.76835V6.30117H4.17721H3.26054C2.75637 6.30117 2.34387 6.71371 2.34387 7.21793C2.34387 7.72215 2.75637 8.1347 3.26054 8.1347H4.17721V18.2191C4.17721 19.7354 5.41104 20.9694 6.92721 20.9694H16.0939C17.61 20.9694 18.8439 19.7354 18.8439 18.2191V8.1347H19.7605C20.2647 8.1347 20.6772 7.72215 20.6772 7.21793C20.6772 6.71371 20.2647 6.30117 19.7605 6.30117Z" fill="#93a7ff"/>
<mask id="mask0_350_2099" style="mask-type:alpha" maskUnits="userSpaceOnUse" x="2" y="2" width="19" height="19">
<path fill-rule="evenodd" clip-rule="evenodd" d="M15.1771 15.4685C15.1771 15.9727 14.7646 16.3852 14.2604 16.3852C13.7562 16.3852 13.3437 15.9727 13.3437 15.4685V11.8018C13.3437 11.2977 13.7562 10.8852 14.2604 10.8852C14.7646 10.8852 15.1771 11.2977 15.1771 11.8018V15.4685ZM9.67721 15.4686C9.67721 15.9728 9.26471 16.3853 8.76054 16.3853C8.25637 16.3853 7.84387 15.9728 7.84387 15.4686V11.8019C7.84387 11.2978 8.25637 10.8853 8.76054 10.8853C9.26471 10.8853 9.67721 11.2978 9.67721 11.8019V15.4686ZM17.0107 18.2194C17.0107 18.7245 16.6001 19.1361 16.0941 19.1361H6.92739C6.42139 19.1361 6.01072 18.7245 6.01072 18.2194V8.135H17.0107V18.2194ZM9.67703 4.76871C9.67703 4.62662 9.87319 4.46804 10.1354 4.46804H12.8854C13.1475 4.46804 13.3437 4.62662 13.3437 4.76871V6.30137H9.67703V4.76871ZM19.7605 6.30117H18.8439H15.1772V4.76835C15.1772 3.59122 14.1496 2.63412 12.8855 2.63412H10.1355C8.87146 2.63412 7.84387 3.59122 7.84387 4.76835V6.30117H4.17721H3.26054C2.75637 6.30117 2.34387 6.71371 2.34387 7.21793C2.34387 7.72215 2.75637 8.1347 3.26054 8.1347H4.17721V18.2191C4.17721 19.7354 5.41104 20.9694 6.92721 20.9694H16.0939C17.61 20.9694 18.8439 19.7354 18.8439 18.2191V8.1347H19.7605C20.2647 8.1347 20.6772 7.72215 20.6772 7.21793C20.6772 6.71371 20.2647 6.30117 19.7605 6.30117Z" fill="white"/>
</mask>
<g mask="url(#mask0_350_2099)">
</g>
</svg>
