<svg width="19" height="19" viewBox="0 0 19 19" fill="none" xmlns="http://www.w3.org/2000/svg">
<g id="edit 1" clip-path="url(#clip0_222_12094)">
<path id="Vector" d="M13.4085 0.841461L3.06738 11.1826L0.850098 18.1499L7.81738 15.9326L18.1585 5.59146C18.1585 5.59146 18.0794 3.92817 16.5752 2.42479C15.071 0.920628 13.4085 0.841461 13.4085 0.841461ZM13.7054 2.12792C14.5541 2.28942 15.2297 2.64892 15.7511 3.18399C16.2724 3.71906 16.6393 4.42969 16.8721 5.29459L15.4372 6.72948L12.2705 3.56282L13.4085 2.42479L13.7054 2.12792ZM3.941 11.9758C3.95036 11.9782 4.89293 12.2165 5.83822 13.1618C6.86738 14.1118 7.02572 14.9832 7.02572 14.9832L7.05973 15.0234L4.25024 15.928L3.06584 14.7436L3.941 11.9758Z" fill="#f2f2f2"/>
</g>
<defs>
<clipPath id="clip0_222_12094">
<rect width="19" height="19" fill="white"/>
</clipPath>
</defs>
</svg>
