<svg width="22" height="23" viewBox="0 0 22 23" fill="none" xmlns="http://www.w3.org/2000/svg">
<g id="01) Icons/Line/arrow-circle-down">
<path id="&#240;&#159;&#142;&#168; Icon &#208;&#161;olor" fill-rule="evenodd" clip-rule="evenodd" d="M5.59395 15.3521L8.32286 15.1037L13.4562 9.96576L10.9849 7.49351L5.83595 12.6424L5.59395 15.3521ZM12.2133 6.26579L14.6837 8.73621L16.4684 6.94871L13.9989 4.47921L12.2133 6.26579ZM3.93475 17.0139C3.74225 16.8214 3.646 16.5537 3.66983 16.2823L4.01725 12.4594C4.05575 12.0405 4.24092 11.6454 4.53975 11.3465L12.7861 3.0993C13.4296 2.45298 14.5965 2.48507 15.2758 3.16256L17.7856 5.67265L17.7865 5.67357C18.4878 6.37581 18.5162 7.49242 17.8488 8.16166L9.60158 16.4098C9.30367 16.7077 8.90858 16.8929 8.48875 16.9314L4.66625 17.2789C4.63875 17.2807 4.61125 17.2816 4.58283 17.2816C4.34175 17.2816 4.108 17.1863 3.93475 17.0139ZM18.3329 20.032C18.3329 20.5362 17.9204 20.9487 17.4163 20.9487H4.58293C4.07968 20.9487 3.66626 20.5362 3.66626 20.032C3.66626 19.5288 4.07968 19.1153 4.58293 19.1153H17.4163C17.9204 19.1153 18.3329 19.5288 18.3329 20.032Z" fill="#f2f2f2"/>
</g>
</svg>
