<svg width="24" height="16" viewBox="0 0 24 16" fill="none" xmlns="http://www.w3.org/2000/svg">
<path id="Vector" d="M0.002 16H6.003C5.975 9.458 8.998 12.303 8.998 7.099C8.998 5.09 7.687 4 6 4C3.508 4 1.774 6.383 4.134 10.839C4.909 12.303 3.309 12.651 1.589 13.048C0.099 13.392 0 14.12 0 15.381L0.002 16ZM20.5 9C18.568 9 17 10.567 17 12.5C17 14.433 18.568 16 20.5 16C22.432 16 24 14.433 24 12.5C24 10.567 22.432 9 20.5 9ZM22 13H21V14H20V13H19V12H20V11H21V12H22V13ZM17.186 16H8.003L8 15.171C8 13.492 8.133 12.522 10.118 12.064C12.361 11.546 14.576 11.083 13.512 9.119C10.356 3.299 12.611 0 16 0C20.06 0 20.857 4.119 19.085 7.903C17.113 8.512 15.666 10.331 15.666 12.5C15.666 13.88 16.255 15.119 17.186 16Z" fill="#1a1d1f"/>
</svg>
