<svg width="28" height="21" viewBox="0 0 28 21" fill="none" xmlns="http://www.w3.org/2000/svg">
<path d="M26.519 9.06301C27.1603 9.90026 27.1603 11.0327 26.519 11.87C24.4997 14.5057 19.6553 19.933 14 19.933C8.34477 19.933 3.5003 14.5057 1.48104 11.87C0.839661 11.0327 0.839648 9.90026 1.48103 9.06301C3.5003 6.42729 8.34477 1 14 1C19.6553 1 24.4997 6.42729 26.519 9.06301Z" stroke="#1A1D1F" stroke-width="2" stroke-linecap="round" stroke-linejoin="round"/>
<path d="M13.9999 14.5235C16.2406 14.5235 18.057 12.7071 18.057 10.4664C18.057 8.22577 16.2406 6.40936 13.9999 6.40936C11.7593 6.40936 9.94287 8.22577 9.94287 10.4664C9.94287 12.7071 11.7593 14.5235 13.9999 14.5235Z" stroke="#1A1D1F" stroke-width="2" stroke-linecap="round" stroke-linejoin="round"/>
</svg>
