<svg width="20" height="16" viewBox="0 0 20 16" fill="none" xmlns="http://www.w3.org/2000/svg">
<path id="Subtract" fill-rule="evenodd" clip-rule="evenodd" d="M1.96053 0C0.877758 0 0 0.877758 0 1.96053V14.0395C0 15.1222 0.877757 16 1.96053 16H18.0395C19.1222 16 20 15.1222 20 14.0395V1.96053C20 0.877758 19.1222 0 18.0395 0H1.96053ZM3.15788 4.21057C3.73923 4.21057 4.21051 3.73929 4.21051 3.15794C4.21051 2.57659 3.73923 2.10531 3.15788 2.10531C2.57653 2.10531 2.10525 2.57659 2.10525 3.15794C2.10525 3.73929 2.57653 4.21057 3.15788 4.21057ZM6.84209 3.15794C6.84209 3.73929 6.37081 4.21057 5.78946 4.21057C5.20811 4.21057 4.73683 3.73929 4.73683 3.15794C4.73683 2.57659 5.20811 2.10531 5.78946 2.10531C6.37081 2.10531 6.84209 2.57659 6.84209 3.15794ZM9.47367 3.15794C9.47367 3.73929 9.00239 4.21057 8.42104 4.21057C7.83968 4.21057 7.36841 3.73929 7.36841 3.15794C7.36841 2.57659 7.83968 2.10531 8.42104 2.10531C9.00239 2.10531 9.47367 2.57659 9.47367 3.15794Z" fill="#E62E7B"/>
</svg>
