<svg width="22" height="22" viewBox="0 0 22 22" fill="none" xmlns="http://www.w3.org/2000/svg">
<path id="Subtract" fill-rule="evenodd" clip-rule="evenodd" d="M1.00092 15.4224L0.0195148 6.82768C-0.130155 5.51694 0.592326 4.26179 1.80093 3.73288L9.75471 0.252146C10.5196 -0.0825832 11.3892 -0.0841032 12.1553 0.24795L20.1894 3.73042C21.4104 4.25967 22.1381 5.52872 21.9781 6.8498L20.9383 15.4352C20.8175 16.4333 20.2056 17.3048 19.3079 17.7576L12.3093 21.2876C11.4571 21.7175 10.4513 21.717 9.5995 21.2864L2.63137 17.7641C1.72845 17.3076 1.1157 16.4276 1.00092 15.4224ZM16.2973 8.36852C16.6111 8.0619 16.6169 7.55893 16.3103 7.24511C16.0037 6.9313 15.5007 6.92547 15.1869 7.2321L9.44094 12.8465L6.83267 10.4475C6.50974 10.1505 6.00717 10.1715 5.71016 10.4945C5.41315 10.8174 5.43416 11.32 5.75709 11.617L8.59009 14.2226C9.0857 14.6784 9.85133 14.6669 10.333 14.1963L16.2973 8.36852Z" fill="#1a1d1f"/>
</svg>
