<?xml version="1.0"?><svg xmlns="http://www.w3.org/2000/svg"  viewBox="0 0 50 50" width="50px" height="50px">    <path d="M47.868,24.504l-2.366-4.141l0.296-4.835c0.021-0.347-0.14-0.681-0.425-0.88l-3.946-2.763l-1.774-4.438 c-0.13-0.324-0.42-0.558-0.765-0.615l-4.735-0.789L30.6,2.787c-0.26-0.238-0.625-0.322-0.961-0.221L25,3.947l-4.639-1.381 C20.025,2.465,19.66,2.549,19.4,2.787l-3.553,3.257l-4.735,0.789c-0.345,0.057-0.635,0.291-0.765,0.615l-1.774,4.438l-3.946,2.763 c-0.285,0.2-0.446,0.533-0.425,0.88l0.296,4.835l-2.366,4.141c-0.176,0.307-0.176,0.685,0,0.992l2.366,4.141l-0.296,4.835 c-0.021,0.347,0.14,0.681,0.425,0.88l3.946,2.763l1.774,4.438c0.13,0.324,0.42,0.558,0.765,0.615l4.735,0.789l3.553,3.257 c0.26,0.238,0.625,0.321,0.961,0.221L25,46.053l4.639,1.381c0.094,0.028,0.189,0.042,0.285,0.042c0.247,0,0.488-0.091,0.676-0.263 l3.553-3.257l4.735-0.789c0.345-0.057,0.635-0.291,0.765-0.615l1.774-4.438l3.946-2.763c0.285-0.2,0.446-0.533,0.425-0.88 l-0.296-4.835l2.366-4.141C48.044,25.189,48.044,24.811,47.868,24.504z M23.503,34.53l-9.073-8.188l1.34-1.484l7.327,6.612 L34.06,14.458l1.682,1.083L23.503,34.53z"/></svg>