<svg width="23" height="27" viewBox="0 0 23 27" fill="none" xmlns="http://www.w3.org/2000/svg">
<path d="M11.2131 13.0142C14.4418 13.0142 17.0593 10.3247 17.0593 7.0071C17.0593 3.68947 14.4418 1 11.2131 1C7.98427 1 5.36682 3.68947 5.36682 7.0071C5.36682 10.3247 7.98427 13.0142 11.2131 13.0142Z" stroke="#1A1D1F" stroke-width="2"/>
<path d="M17.0593 15.417H17.4705C19.2395 15.417 20.7317 16.7706 20.9511 18.5742L21.4077 22.3275C21.5822 23.7616 20.4938 25.0284 19.0872 25.0284H3.33883C1.93224 25.0284 0.843939 23.7616 1.0184 22.3275L1.47499 18.5742C1.69441 16.7706 3.18662 15.417 4.95565 15.417H5.36682" stroke="#1A1D1F" stroke-width="2" stroke-linecap="round" stroke-linejoin="round"/>
</svg>
