<svg width="23" height="27" viewBox="0 0 23 27" fill="none" xmlns="http://www.w3.org/2000/svg">
<g id="Group">
<path id="Vector" d="M11.4999 13.0142C14.7287 13.0142 17.3462 10.3247 17.3462 7.0071C17.3462 3.68947 14.7287 1 11.4999 1C8.27113 1 5.65369 3.68947 5.65369 7.0071C5.65369 10.3247 8.27113 13.0142 11.4999 13.0142Z" stroke="#1A1D1F" stroke-width="2"/>
<path id="Vector_2" d="M17.3461 15.417H17.7574C19.5263 15.417 21.0185 16.7706 21.238 18.5742L21.6946 22.3275C21.869 23.7616 20.7807 25.0284 19.3741 25.0284H3.6257C2.2191 25.0284 1.1308 23.7616 1.30527 22.3275L1.76186 18.5742C1.98128 16.7706 3.47348 15.417 5.24252 15.417H5.65368" stroke="#1A1D1F" stroke-width="2" stroke-linecap="round" stroke-linejoin="round"/>
</g>
</svg>
