<svg width="117" height="117" viewBox="0 0 117 117" fill="none" xmlns="http://www.w3.org/2000/svg">
<path fill-rule="evenodd" clip-rule="evenodd" d="M58.5 0C90.7871 0 117 26.2129 117 58.5C117 90.7871 90.7871 117 58.5 117C26.2129 117 0 90.7871 0 58.5C0 26.2129 26.2129 0 58.5 0ZM98.1191 94.6237C96.7444 92.6689 94.3556 91.4355 90.2021 90.48C71.4431 86.0632 70.2292 83.1626 68.9861 80.4424C67.7235 77.688 68.0599 74.4461 69.9855 70.8045C78.3997 54.9266 80.1743 41.4375 74.9921 32.8283C71.7064 27.3731 65.8515 24.375 58.5 24.375C51.0851 24.375 45.1815 27.4268 41.8811 32.9696C36.6844 41.691 38.5028 55.1216 46.995 70.785C48.9548 74.4023 49.3155 77.6392 48.0675 80.4082C46.7756 83.265 45.0889 86.2095 26.7881 90.48C22.6346 91.4355 20.2459 92.6689 18.876 94.614C28.6845 105.373 42.8123 112.125 58.5 112.125C74.1878 112.125 88.3106 105.373 98.1191 94.6237ZM101.288 90.8115C108.089 81.822 112.125 70.629 112.125 58.5C112.125 28.9039 88.0961 4.875 58.5 4.875C28.9039 4.875 4.875 28.9039 4.875 58.5C4.875 70.6241 8.90662 81.8171 15.7072 90.8018C17.7011 88.5982 20.8211 86.853 25.6961 85.7269C35.568 83.4746 42.1541 81.6514 43.6264 78.4046C44.2211 77.0786 43.9237 75.3431 42.7099 73.1055C33.3645 55.8724 31.5851 40.7306 37.6886 30.4736C41.847 23.4975 49.4276 19.5 58.5 19.5C67.4944 19.5 75.0311 23.439 79.17 30.3127C85.2686 40.4479 83.538 55.6384 74.295 73.086C73.1006 75.3431 72.813 77.0884 73.4224 78.4193C74.9092 81.6758 81.4369 83.4795 91.299 85.7269C96.174 86.8481 99.294 88.6031 101.288 90.8115Z" fill="#93A7FF"/>
</svg>
