<svg width="19" height="19" viewBox="0 0 19 19" fill="none" xmlns="http://www.w3.org/2000/svg">
<g id="fluent:search-24-filled">
<g id="Group">
<path id="Vector" d="M8.03608 2.26849C9.08456 2.26736 10.1125 2.5593 11.0039 3.11136C11.8952 3.66342 12.6146 4.45362 13.0807 5.39279C13.5468 6.33197 13.7412 7.38272 13.6418 8.42649C13.5425 9.47026 13.1534 10.4655 12.5184 11.2999L16.0794 14.8549C16.214 14.9897 16.2923 15.1708 16.2983 15.3612C16.3043 15.5517 16.2376 15.7373 16.1118 15.8803C15.9859 16.0234 15.8103 16.1132 15.6206 16.1314C15.4309 16.1497 15.2414 16.0951 15.0905 15.9787L15.02 15.9165L11.4575 12.3629C10.7479 12.9053 9.91923 13.2708 9.04023 13.4292C8.16123 13.5877 7.25713 13.5346 6.40274 13.2743C5.54834 13.0139 4.76823 12.5539 4.12693 11.9322C3.48564 11.3105 3.00161 10.5451 2.7149 9.69915C2.42818 8.85325 2.34703 7.95123 2.47815 7.06774C2.60926 6.18424 2.94888 5.34467 3.46891 4.6185C3.98893 3.89232 4.6744 3.30042 5.4686 2.89177C6.26281 2.48312 7.14291 2.26946 8.03608 2.26849ZM8.03763 3.76849C6.94361 3.76962 5.89486 4.20531 5.12207 4.9797C4.34929 5.75409 3.91578 6.80375 3.91691 7.89776C3.91805 8.99178 4.35373 10.0405 5.12812 10.8133C5.90251 11.5861 6.95217 12.0196 8.04618 12.0185C9.1402 12.0174 10.189 11.5817 10.9617 10.8073C11.7345 10.0329 12.168 8.98323 12.1669 7.88921C12.1658 6.7952 11.7301 5.74644 10.9557 4.97365C10.1813 4.20087 9.13165 3.76736 8.03763 3.76849Z" fill="#1a1d1f" fill-opacity="0.5"/>
</g>
</g>
</svg>
