<svg width="19" height="19" viewBox="0 0 19 19" fill="none" xmlns="http://www.w3.org/2000/svg">
<path d="M17.7082 7.95833V12.125C17.7082 16.2917 16.0415 17.9583 11.8748 17.9583H6.87484C2.70817 17.9583 1.0415 16.2917 1.0415 12.125V7.125C1.0415 2.95833 2.70817 1.29167 6.87484 1.29167H11.0415" stroke="#93A7FF" stroke-width="1.67968" stroke-linecap="round" stroke-linejoin="round"/>
<path d="M4.51976 10.4345H4.0415V9.79167H4.51976V10.4345ZM15.0415 9.79167H14.5632V10.4345H15.0415V9.79167ZM5.47629 9.14881H4.99803V11.0774H5.47629V9.14881ZM14.085 9.14881H13.6067V11.0774H14.085V9.14881ZM7.38933 9.14881H6.91107V11.0774H7.38933V9.14881ZM12.1719 8.50595H11.6937V11.7202H12.1719V8.50595ZM6.43281 8.50595H5.95455V11.7202H6.43281V8.50595ZM13.1285 7.8631H12.6502V12.3631H13.1285V7.8631ZM8.34585 7.8631H7.86759V12.3631H8.34585V7.8631ZM9.30237 6.57738H8.82411V13.006H9.30237V6.57738ZM11.2154 6.57738H10.7372V13.006H11.2154V6.57738ZM10.2589 5.29167H9.78063V14.2917H10.2589V5.29167Z" fill="#93A7FF"/>
</svg>
