<svg width="20" height="19" viewBox="0 0 20 19" fill="none" xmlns="http://www.w3.org/2000/svg">
<path d="M18.2082 7.95833V12.125C18.2082 16.2917 16.5415 17.9583 12.3748 17.9583H7.37484C3.20817 17.9583 1.5415 16.2917 1.5415 12.125V7.125C1.5415 2.95833 3.20817 1.29167 7.37484 1.29167H11.5415" stroke="white" stroke-width="1.67968" stroke-linecap="round" stroke-linejoin="round"/>
<path d="M5.72008 5.29167C5.0695 5.29167 4.5415 5.82927 4.5415 6.49167C4.5415 7.15487 5.0695 7.69167 5.72008 7.69167C6.37065 7.69167 6.89865 7.15487 6.89865 6.49167C6.89865 5.82927 6.37065 5.29167 5.72008 5.29167Z" fill="white"/>
<path d="M9.63372 10.0917L11.6129 6.89167L15.5415 13.2917H4.5415L7.68436 8.52367L9.63372 10.0917Z" fill="white"/>
</svg>
